<?xml version="1.0" encoding="utf-8"?>
<!-- Generator: Adobe Illustrator 20.1.0, SVG Export Plug-In . SVG Version: 6.00 Build 0)  -->
<svg version="1.1" id="Calque_1" xmlns="http://www.w3.org/2000/svg" xmlns:xlink="http://www.w3.org/1999/xlink" x="0px" y="0px"
	 viewBox="0 0 1247.2 907.1" style="enable-background:new 0 0 1247.2 907.1;" xml:space="preserve">
<style type="text/css">
	.st0{fill:none;}
	.st1{enable-background:new    ;}
	.st2{fill:#FFFFFF;}
	.st3{fill:#FFFFFF;stroke:#000000;stroke-width:0.5669;stroke-miterlimit:10;}
	.st4{fill:none;stroke:#000000;stroke-width:0.5669;stroke-miterlimit:10;}
	.st5{fill:none;stroke:#000000;stroke-miterlimit:10;}
	.st6{fill:none;stroke:#000000;stroke-width:0.4252;stroke-miterlimit:10;}
	.st7{fill:none;stroke:#231F20;stroke-width:2.8346;stroke-miterlimit:10;}
	.st8{fill:#231F20;}
	.st9{fill:none;stroke:#231F20;stroke-miterlimit:10;}
	.st10{fill:none;stroke:#231F20;stroke-width:1.4173;stroke-miterlimit:10;}
</style>
<path d="M470.1,380.4c0.6,2,2.4,3.5,4.5,3.7c0.2,0,0.4,0,0.6,0c1.9,0,3.6-1,4.6-2.6c21.4-36.2,47.6-48,47.8-48.1
	c2.1-0.9,3.3-2.9,3.2-5.2c-0.1-2.2-1.6-4.2-3.7-4.8l-73-22.7c-1.9-0.6-4-0.1-5.4,1.3s-1.9,3.5-1.3,5.4L470.1,380.4z M512.3,330
	c-9.1,6.2-22.6,17.5-35.4,36.2l-16.2-52.3L512.3,330z"/>
<path d="M668.5,330.6c0.3,0.1,26.4,11.9,47.8,48.1c1,1.6,2.7,2.6,4.6,2.6c0.2,0,0.4,0,0.6,0c2.1-0.2,3.9-1.7,4.5-3.7l22.7-72.9
	c0.6-1.9,0.1-4-1.3-5.4c-1.4-1.4-3.5-1.9-5.4-1.3l-73,22.7c-2.1,0.7-3.6,2.6-3.7,4.8C665.2,327.6,666.5,329.7,668.5,330.6z
	 M735.5,311.1l-16.2,52.3c-12.8-18.7-26.3-30-35.4-36.2L735.5,311.1z"/>
<path d="M725.2,450.7c0-69.9-56.9-126.8-126.8-126.8s-126.8,56.9-126.8,126.8s56.9,126.8,126.8,126.8S725.2,520.6,725.2,450.7z
	 M598.4,566.8c-64,0-116.1-52.1-116.1-116.1s52.1-116.1,116.1-116.1s116.1,52.1,116.1,116.1C714.6,514.8,662.5,566.8,598.4,566.8z"
	/>
<ellipse cx="595.1" cy="268.2" rx="4.2" ry="4.2"/>
<path d="M564.4,316.4c0.1,0,11.9-4.6,31.5-4.6c11.8,0,24,1.6,36.3,4.8c0.4,0.1,0.9,0.2,1.3,0.2h0.1c3,0,5.3-2.4,5.3-5.3
	c0-1.1-0.3-2.1-0.9-3l-35.2-82.7c-0.8-2-2.8-3.3-4.9-3.3c-2.1,0-4.1,1.3-4.9,3.3l-35.6,83.6c-0.8,2-0.4,4.3,1.1,5.8
	C560.1,316.7,562.4,317.2,564.4,316.4z M598,241.4l26.6,62.5c-9.7-1.9-19.3-2.8-28.6-2.8c-3.4,0-6.4,0.2-9.4,0.4l8-20.6
	c0.8-2.1-0.2-4.4-2.3-5.2c-2-0.8-4.4,0.2-5.2,2.3l-9.5,24.5c-2.2,0.3-4.2,0.6-6,1L598,241.4z"/>
<path d="M725.1,521.4c-0.7-2.1-2.6-3.6-4.8-3.7s-4.3,1.2-5.2,3.2c-0.1,0.2-11.9,26.4-48.1,47.8c-1.8,1.1-2.8,3.1-2.6,5.2
	c0.2,2.1,1.7,3.8,3.7,4.5l72.9,22.7c0.5,0.2,1.1,0.2,1.6,0.2c1.4,0,2.8-0.5,3.8-1.6c1.4-1.4,1.9-3.5,1.3-5.4L725.1,521.4z
	 M682.3,571.6c18.7-12.8,30-26.3,36.2-35.4l16,51.7L682.3,571.6z"/>
<path d="M777.1,459.4c2.3,0,4.2-1.9,4.2-4.2c0-2.3-1.9-4.2-4.2-4.2s-4.2,1.9-4.2,4.2C773,457.5,774.8,459.4,777.1,459.4z"/>
<circle cx="421.1" cy="454.4" r="4.2"/>
<path d="M822.5,446.7l-83.6-35.6c-2-0.8-4.3-0.4-5.8,1.1s-2,3.8-1.2,5.8c0.1,0.3,10.3,27.1-0.2,67.8c-0.5,2,0.1,4,1.7,5.4
	c1,0.9,2.2,1.3,3.5,1.3c0.7,0,1.4-0.1,2.1-0.4l83.6-35.6c2-0.8,3.3-2.8,3.3-4.9C825.8,449.4,824.5,447.5,822.5,446.7z M744.3,478.2
	c0.4-2.1,0.7-4.2,1-6.2l23.2-9c2.1-0.8,3.1-3.1,2.3-5.2s-3.1-3.1-5.2-2.3l-19.1,7.5c1.5-16.3,0.1-29.2-1.6-37.7l62,26.3L744.3,478.2
	z"/>
<path d="M461.8,492.5h0.1c2.9,0,5.3-2.4,5.3-5.3c0-0.8-0.2-1.6-0.5-2.3c-10.1-40.2-0.1-66.6,0-66.8c0.8-2,0.3-4.3-1.2-5.8
	s-3.8-1.9-5.8-1.1l-83.6,35.6c-2,0.8-3.2,2.8-3.2,4.9s1.3,4.1,3.2,4.9l83.6,35.6C460.4,492.4,461.1,492.5,461.8,492.5z M391.8,451.6
	l62-26.3c-1.7,8.5-3.1,21.4-1.6,37.8l-19.6-7.6c-2.1-0.8-4.4,0.2-5.2,2.3c-0.8,2.1,0.2,4.4,2.3,5.2l23.6,9.2c0.3,2,0.6,4,1,6
	L391.8,451.6z"/>
<path d="M528.2,566c-0.3-0.1-26.4-11.9-47.8-48.1c-1.1-1.8-3.2-2.9-5.2-2.6c-2.1,0.2-3.9,1.7-4.5,3.7L448,591.9
	c-0.6,1.9-0.1,4,1.3,5.4c1,1,2.4,1.6,3.8,1.6c0.5,0,1.1-0.1,1.6-0.2l73-22.6c2.1-0.7,3.6-2.6,3.7-4.8
	C531.5,568.9,530.3,566.8,528.2,566z M461.2,585.4l16.2-52.3c12.8,18.7,26.3,30,35.4,36.2L461.2,585.4z"/>
<rect x="406.5" y="657.3" class="st0" width="382.8" height="51.1"/>
<g class="st1">
	<path d="M452.6,684c0,0.6-0.5,1.2-1.4,2.1c-0.9,0.8-1.5,1.2-1.9,1.2c-0.6,0-0.9,0-1,0.1v15c0-0.1,0.2,0.6,0.6,2.2
		c0.4,2.5,0.1,4-0.9,4.5c-0.2,0.1-0.5,0.1-0.9,0.1c-1.4,0-3.2-0.5-5.4-1.5c-2.3-1-3.8-2.1-4.3-3.1c0-0.4-0.1-0.9-0.2-1.6
		c-0.1-0.3,0.1-0.7,0.4-1.1c0.4-0.5,0.5-0.8,0.5-0.9v-12c-0.8,0.1-2.2,0.4-4.5,0.9c-2.2,0.5-3.7,0.9-4.4,1.2v12.1
		c0,0.3,0.1,0.6,0.4,1c0.3,0.4,0.4,0.7,0.4,0.9c-0.2,0.6-0.3,1.3-0.4,1.8c-0.1,0.4-0.3,0.7-0.7,0.8c-0.6,0.2-2.4-0.1-5.3-1.1
		c-2.9-1-4.5-1.8-4.6-2.4c-0.1-0.4-0.2-0.9-0.1-1.4c0.1-0.8,0.2-1.4,0.2-1.7v-38.1c0-0.6,0.2-1.7,0.5-3.3c0.1-0.4,0.8-1,2-1.7
		c0.1,0,0.3-0.1,0.7-0.1c1.5,0,3,0.2,4.6,0.7c2.1,0.6,3.2,1.5,3.3,2.5c0,0.4-0.1,1-0.5,2c-0.4,1-0.6,1.7-0.6,2v14.5
		c2.7-0.7,5.7-1.4,8.9-2.1c0-11,0-16.5,0-16.6s-0.1-0.4-0.3-0.9s-0.2-0.9-0.1-1.3c0.2-0.7,0.9-1.2,2-1.4c0.8-0.1,1.7-0.2,2.5-0.3
		c0.9-0.1,2.2,0.1,3.8,0.8c1.7,0.6,2.6,1.3,2.8,2c0.1,0.3,0,0.7-0.2,1.3c-0.3,0.7-0.4,1.2-0.4,1.7v16.5c0.2,0.2,1.1,1.1,2.8,2.6
		C452.2,682.9,452.7,683.6,452.6,684z"/>
	<path d="M477.3,672.8c2.2,1,3.9,3.1,5.1,6.3c1.1,2.9,1.6,6.2,1.6,10.1c0,5.4-0.9,10-2.7,13.9c-2,4.2-4.6,6.1-7.6,5.7
		c-1.1-0.3-2.8-0.6-5-1c-1.6-0.2-3.1-0.5-4.4-0.9c-2.3-0.6-4.1-2.5-5.4-5.8c-1.2-3-1.8-6.6-1.8-10.6c0-4.1,0.6-7.8,1.9-11.1
		c1.4-3.7,3.4-6.2,6-7.7c0.4-0.2,1-0.4,1.8-0.4c0.8,0,2.4,0.3,4.7,0.8C472.9,672.1,474.9,672.4,477.3,672.8z M470.6,678.2
		c-1.1,0-2.1,1.3-3,3.9c-0.9,2.6-1.4,5.1-1.4,7.5c0,2.9,0.3,5.7,1,8.5c0.8,3,1.6,4.6,2.6,4.9c1.3,0.3,2.4-1.2,3.4-4.3
		c1-3,1.4-6.4,1.4-10c0-2-0.3-4-0.8-6C473.3,679.6,472.2,678.2,470.6,678.2z"/>
	<path d="M515.8,703.1c0.3,0.8,0.5,1.5,0.5,2.3c0,1.2-0.5,2-1.4,2.4c-0.3,0.1-0.8,0.2-1.5,0.2c-1.4,0-3-0.2-4.8-0.6
		c-1.9-0.4-3-0.8-3.4-1.2c-0.2-0.2-0.3-0.5-0.3-0.8c0-0.4,0.3-1.1,0.9-2.1c0.6-1,0.9-1.7,0.9-2.1c0.1-15.7,0-23.5-0.4-23.7
		c-0.6-0.2-1.9,1.6-4.1,5.4c-2.3,4-3.5,7-3.5,9V703c0.5,0.5,0.8,1.2,0.8,1.9c0,1.5-0.7,2.5-2,3.1c-0.2,0.1-0.4,0.1-0.7,0.1
		c-1.1,0-2.6-0.2-4.7-0.7c-2.1-0.5-3.2-0.9-3.5-1.2s-0.4-0.7-0.4-1.1c0-0.4,0.2-0.9,0.7-1.4c0.5-0.6,0.7-0.9,0.7-1.1v-27.7
		c0-0.3-0.2-0.7-0.5-1.3c-0.3-0.5-0.4-1-0.3-1.3c0.2-0.8,0.9-1.4,1.8-1.6c0.6-0.2,2.1,0.1,4.5,0.7c2.5,0.6,3.9,1.3,4.2,2
		c0.2,0.4,0.1,1.1-0.2,2c-0.4,1.4-0.7,2.2-0.7,2.4c0,0.4,0.1,0.9,0.2,1.4c0.6-2,1.4-3.8,2.5-5.3c1.3-1.9,2.6-2.8,3.9-2.8
		c1.4,0,3.1,0.5,5.2,1.4c2.1,0.9,3.4,1.8,3.7,2.5C515.2,677.5,515.8,686.9,515.8,703.1z"/>
	<path d="M545.3,696.5c0.4,0.6-0.4,2.4-2.3,5.3c-2.1,3.1-4.1,5.3-6.1,6.4c-0.2,0.1-0.6,0.2-1.1,0.2c-1.5,0-3.6-0.5-6.1-1.4
		c-2.7-1-4.4-2-5.2-3.1c-2.3-3-3.5-7.1-3.5-12.4c0-5,1-9.4,3-13.2c2.2-4.2,5-6.3,8.3-6.4c1.2,0,2.7,0.3,4.5,1c2.1,0.8,3.9,2,5.3,3.4
		c0.4,0.4,0.7,1.4,1,3.2c0.4,1.9,0.6,3.8,0.6,5.6c0,2.7-0.4,4.6-1.3,5.6c-4.1,1.3-8.3,2-12.5,2.2c-0.1,1.9,0.2,4,0.7,6.1
		c0.6,2.1,1.1,3.2,1.7,3.3c0.8,0,1.7-0.6,2.9-2c1-1.2,1.6-2.1,1.8-2.9c0.3-1.2,0.7-2.4,1.1-3.7c0.6-0.1,1.9,0.2,3.8,1
		C543.9,695.3,545,696,545.3,696.5z M534.7,678.3c-0.7-0.1-1.6,1-2.8,3.2c-1.2,2.2-1.9,4.4-2.1,6.4c1.8-0.1,3.2-0.5,4.3-1.3
		c0.6-0.5,1-2.5,1-6C535,679.1,534.9,678.4,534.7,678.3z"/>
	<path d="M579.2,674.7c0.1,0.3,0.1,0.6,0.1,0.9c0,0.7-0.3,1.4-0.9,2.1c-0.8,0.9-1.2,1.6-1.3,1.9l-11.9,34.2
		c-0.1,0.8-0.2,1.6-0.2,2.4c-0.2,1.3-0.6,2-1.2,2.1c-0.2,0-0.4,0.1-0.7,0.1c-1.1,0-2.4-0.3-4-0.9c-1.6-0.6-2.7-1.2-3.3-1.7
		c-0.6-0.6-0.9-1.2-0.9-1.8c0-0.6,0.3-1.3,0.8-2.2c0.6-0.9,0.9-1.5,1-1.7l2-6.7l-9.7-23.7c-0.1-0.2-0.4-0.6-1.1-1.2
		c-0.5-0.5-0.9-1.3-1-2.4c-0.1-0.5,1-1.3,3.1-2.5c2.2-1.2,3.9-1.8,5.1-1.8c0.3,0,0.6,0.1,0.8,0.2c0.6,0.4,1.1,1,1.4,2
		c0.2,0.9,0.4,1.7,0.7,2.6l5.2,14.5l5.6-14.9c0.2-0.8,0.5-1.6,0.8-2.4c0.3-0.8,0.7-1.3,1.3-1.5c0.4-0.1,0.8-0.2,1.3-0.2
		c1.3,0,2.8,0.3,4.4,0.9C578.2,673.5,579.1,674.1,579.2,674.7z"/>
	<path d="M649.6,705.8c-0.3,1.7-0.8,2.6-1.4,2.8c-1,0.2-2.8,0-5.5-0.8c-2.9-0.8-4.5-1.6-4.9-2.4c-0.1-0.3-0.2-0.6-0.2-0.9
		c0-0.2,0-0.6,0.1-1.2c0.1-0.5,0.1-1,0.1-1.3V675c-1.9,3.7-4.3,11.9-7.3,24.7c0,0.2-0.1,0.3-0.1,0.5c0,0.4,0.1,1,0.2,1.9
		c0.1,0.9,0.2,1.4,0.2,1.7c0,1.2-0.1,2-0.2,2.4c-0.2,0.8-0.6,1.3-1.3,1.4c-0.4,0.1-1.1,0.2-2.1,0.2c-5.2,0-8.7-0.9-10.7-2.7
		c-0.3-0.3-0.4-0.8-0.4-1.5c0.1-0.9,0.1-1.4,0-1.7c-1.5-4.5-2.8-8.5-3.9-11.9c-2.8-8.3-4.6-13.1-5.4-14.6v23.7
		c0,0.5,0.2,1.2,0.5,2.1c0.4,1.1,0.6,1.8,0.7,2.1c0.2,0.8,0.2,1.7,0.1,2.9c-0.1,1.3-0.4,2.2-0.8,2.5c-0.2,0.2-0.7,0.2-1.4,0.2
		c-1.5,0-3.2-0.3-5.2-0.8c-2.2-0.5-3.5-1.1-3.9-1.6c-0.2-0.3-0.3-0.6-0.3-1c0-0.2,0.1-0.6,0.2-1.2c0.1-0.6,0.2-1,0.2-1.3v-42.3
		c0-0.5,0.2-1,0.6-1.6c0.4-0.6,0.9-1,1.4-1.2c0.7-0.3,3.3,0.2,7.8,1.4c4.7,1.2,7.2,2.3,7.5,3.2c0.1,0.4,0.1,0.8,0.1,1.4
		c-0.1,0.8-0.2,1.3-0.2,1.5c0,0.4,0.1,0.7,0.2,1l8,21.6c1.1-3.5,3.1-10.7,6.1-21.5c1.5-5.5,2.7-8.4,3.6-8.6c0.3-0.1,0.6-0.1,1-0.1
		c0.7,0,1.8,0.2,3.4,0.5c1.7,0.4,3,0.7,3.6,0.7c3.1,0.3,4.9,0.5,5.4,0.5c1.9,0.4,2.9,1,3.2,2c0.1,0.3,0.1,0.6,0.1,0.9
		c0,0.4-0.1,1-0.3,1.7c-0.2,0.7-0.3,1.3-0.3,1.6v36.5c0,0.4,0.2,1,0.7,1.8C649.4,704.8,649.7,705.4,649.6,705.8z"/>
	<path d="M681.6,705.6c0,0.6-0.3,1-0.7,1.4c-0.4,0.4-0.9,0.6-1.5,0.5c-4.9-0.7-7.7-1.6-8.2-2.8c-0.1-0.2-0.1-0.3-0.1-0.5
		c0-0.2,0.1-0.4,0.3-0.7s0.3-0.4,0.3-0.6c0-0.2,0.1-0.3,0.2-0.5c0.1-0.3,0.1-1,0.1-2.1c-0.5,0.4-1.2,1.3-2.1,2.9
		c-1,1.7-1.9,2.9-2.6,3.6c-1.3,1.2-2.7,1.8-4.4,1.8c-1,0-1.9-0.4-2.8-1.1c-0.4-0.4-1.2-1.1-2.3-2.3c-1.9-2.1-2.9-3.3-3.1-3.5
		c-0.8-1.1-1.3-2.2-1.3-3.2c0-0.3,0-0.6,0.1-1c0.8-3.5,3.1-6.8,7-10c2.9-2.3,6.9-4.7,12.2-7.2c0-1.3-0.3-2.1-1-2.4
		c-0.4-0.2-1.8,0.2-4.2,1.3c-2.4,1.1-4.1,2.1-5,2.9c-0.3,0.3-0.8,0.8-1.5,1.3c-0.7,0.4-1.3,0.5-1.8,0.4c-0.4-0.1-1.4-0.8-2.8-2.1
		s-2.2-2.2-2.3-2.6c-0.3-1.1,0-1.9,1-2.5c0,0,0.8-0.3,2.4-0.7c1.5-0.8,2.9-1.6,4.4-2.4c3.1-1.5,5.7-2.3,7.9-2.4
		c0.9,0,1.9,0.4,3.1,1.4c1,0.9,2.1,1.8,3.1,2.7c1.1,0.9,2.1,1.8,3.2,2.6c1.3,1.1,1.9,2.2,1.9,3.2v22.5
		C681.5,704.6,681.7,705.3,681.6,705.6z M672.1,688.2c-1.9,0.8-3.6,1.9-5,3.5c-1,1.3-2.1,2.5-3.1,3.8c-0.8,0.8-1.6,1.9-2.4,3.2
		s-1.1,2.3-1.1,2.9c0,0.3,0.1,0.5,0.4,0.5c0.8,0,2.7-1.8,5.6-5.4C669.4,693.1,671.3,690.3,672.1,688.2z"/>
	<path d="M715.1,701.1c0.1,0.8-0.7,2.1-2.3,4.1c-1.6,2-2.8,2.9-3.7,2.8c-1.7-0.2-5.3-4.8-10.8-13.8c-0.4,0.4-1.1,1.1-2,2.1v7
		c0,0.2,0,0.6,0.1,1.1c0.1,0.5,0.2,0.9,0.2,1.1c0.1,1.3-0.2,2.2-0.8,2.6c-0.4,0.2-0.9,0.3-1.7,0.3c-1.5,0-3-0.3-4.4-0.8
		c-1.7-0.6-2.5-1.4-2.5-2.3v-44.2c0-0.6,0.2-1.3,0.6-2.1c0.4-0.8,0.9-1.2,1.4-1.4c0.1,0,0.3-0.1,0.5-0.1c1,0,2.5,0.3,4.3,1
		s2.9,1.3,3.1,1.8c0.1,0.3,0.2,0.5,0.2,0.7c0,0.3-0.2,0.7-0.5,1.2c-0.3,0.5-0.5,1-0.5,1.4v20.7l8.8-12.1c0.5-0.7,1.2-1.1,2-1.1
		c0.8,0,1.8,0.4,3.2,1.4c1.5,1.1,2.3,2.2,2.3,3.3c0,0.4-0.9,2-2.8,4.6c-2.9,4.2-4.7,6.7-5.2,7.5l7.7,10.7c0.3,0.4,0.9,0.8,1.7,1.3
		C714.7,700.3,715,700.7,715.1,701.1z"/>
	<path d="M742.6,696.5c0.4,0.6-0.4,2.4-2.3,5.3c-2.1,3.1-4.1,5.3-6.1,6.4c-0.2,0.1-0.6,0.2-1.1,0.2c-1.5,0-3.6-0.5-6.1-1.4
		c-2.7-1-4.4-2-5.2-3.1c-2.3-3-3.5-7.1-3.5-12.4c0-5,1-9.4,3-13.2c2.2-4.2,5-6.3,8.3-6.4c1.2,0,2.7,0.3,4.5,1c2.1,0.8,3.9,2,5.3,3.4
		c0.4,0.4,0.7,1.4,1,3.2c0.4,1.9,0.6,3.8,0.6,5.6c0,2.7-0.4,4.6-1.3,5.6c-4.1,1.3-8.3,2-12.5,2.2c-0.1,1.9,0.2,4,0.7,6.1
		s1.1,3.2,1.7,3.3c0.8,0,1.7-0.6,2.9-2c1-1.2,1.6-2.1,1.8-2.9c0.3-1.2,0.7-2.4,1.1-3.7c0.6-0.1,1.9,0.2,3.8,1S742.2,696,742.6,696.5
		z M731.9,678.3c-0.7-0.1-1.6,1-2.8,3.2c-1.2,2.2-1.9,4.4-2.1,6.4c1.8-0.1,3.2-0.5,4.3-1.3c0.6-0.5,1-2.5,1-6
		C732.2,679.1,732.1,678.4,731.9,678.3z"/>
	<path d="M769.5,675.4c0.2,0.6-0.1,1.2-0.7,1.6c-0.5,0.2-0.9,0.5-1.4,0.8c-2.5,3.8-5.9,9-10.2,15.4c0,6.3,0,9.6,0.1,9.8
		c0,0.2,0.2,0.7,0.4,1.5c0.3,0.8,0.4,1.5,0.4,1.9c0,0.8-0.3,1.3-1,1.6c-0.4,0.2-1,0.3-1.8,0.3c-1.5,0-3.2-0.3-5-1
		c-2.3-0.8-3.5-1.8-3.5-3c0-0.4,0.2-0.9,0.5-1.7c0.3-0.8,0.5-1.4,0.5-2v-23.6c-0.4-2.2-0.7-3.4-0.7-3.5c0-1.2,0.6-2,1.7-2.3
		c0.5-0.1,1.1-0.2,1.7-0.2c1.4,0,2.9,0.2,4.4,0.7c1.5,0.5,2.4,0.9,2.7,1.5c0.1,0.2,0.1,0.4,0.1,0.6c0,0.2-0.3,1.2-0.8,2.9v2.9
		c1-1.7,1.9-3.4,2.8-5.1c1.2-2.1,2.1-3.3,2.7-3.4c0.9-0.2,2.2,0.4,4,1.5C768.3,673.6,769.3,674.6,769.5,675.4z"/>
	<path d="M792.9,701c0,2.2-0.7,3.9-2.2,5.2c-1.5,1.3-3.5,2-6.1,2c-0.6,0-1.3-0.1-2.1-0.3c-1.4-0.4-2.1-0.6-2.1-0.6
		c-0.7-0.2-1.4-0.3-2.2-0.5c-0.7-0.2-1.4-0.5-1.9-0.9c-0.9-0.8-1.7-1.9-2.6-3.3c-0.7-1.1-1.3-2.2-2-3.4s-1-1.8-1-2.1
		c0-0.6,0.4-1,1.2-1.3c0.2-0.1,0.6-0.1,1.1-0.1c1.2,0,2.7,0.1,4.5,0.4c1.8,0.3,2.8,0.5,3,0.7c0.2,0.2,0.4,1.3,0.7,3.4
		c0.2,1.8,0.7,2.7,1.3,2.7c0.9,0,1.4-1.2,1.4-3.7c0-3.1-0.8-5.1-2.5-5.9c-3.8-1.8-6.3-3.4-7.5-4.8c-1.5-1.7-2.2-4.3-2.2-7.7
		c0-2.3,0.6-4.4,1.8-6.4c1.2-2,2.6-3.2,4.2-3.6c0.7-0.2,3,0.6,6.9,2.3c0.4,0.1,1.4,0.3,3.2,0.7c1.2,0.2,2.1,0.7,2.6,1.3
		c0.8,0.9,1.2,2.4,1.3,4.4c0,1.5,0.1,2.9,0.1,4.4c0.3,1.4,0.4,2.1,0.4,2.4c0,1.1-0.5,1.7-1.6,1.9c-0.6,0.1-1.6-0.1-3.3-0.7
		c-1.8-0.6-2.9-1.2-3.4-1.8c-0.1-0.2-0.2-1.6-0.4-4.5c-0.1-2.7-0.4-4-0.8-4c-0.6,0-1.2,0.8-1.7,2.3c-0.5,1.6-0.8,3.2-0.8,4.8
		c0,2.1,0.5,3.4,1.4,4c1.9,1.1,3.9,2.2,5.8,3.2c1.9,1.1,3.3,2.2,4,3.4C792.4,696.5,792.9,698.5,792.9,701z"/>
</g>
<g>
	<path d="M543.3,167.5c-18.2,9.7-28,27-32.6,38.1c-0.1-1.7-0.7-3.5-1.6-5.2c-2-3.7-4.8-6-8.6-7l0.4-8.4c0.2-2.7-1.9-5-4.3-5
		c-2.6-0.3-4.8,1.7-4.6,4.2l-0.3,9.2c-1.8,0.5-3.8,1.2-5.7,2.2s-3.6,2.4-5,3.5l-8.3-5c-2.3-1.3-4.9-0.8-6.1,1.5s-0.5,5,1.8,6.4
		l7.2,4.4c-0.9,3.5-0.9,7.4,1.1,11.1c0.9,1.7,2.1,3.2,3.4,4.2c-11.6-2-31.5-3.8-49.8,5.9c-20.1,10.7-17,22-14.6,26.3
		c10.4,19.4,32.2,19.4,44,16.6c3.5,2.8,9.6,5.2,15.6,2c3.1-1.7,6.4-4.7,9.2-9.2c1.3-2,0.5-5-1.5-6.5s-4.9-0.8-6.2,1.2
		c-1.9,3.2-4.1,5.2-6.3,6.4c-3.5,1.8-6.9-1.5-7-1.8c-1.2-1.5-3-1.8-4.8-1.3c-1.1,0.2-25.6,8.1-35.8-11c-1.7-4.7,4.8-9.9,11.7-13.6
		c19.5-10.4,42.5-5.9,50.1-3.9c0.4,0.7,0.4,1.5,0.9,2.5c2,3.7,4.5,5.4,7.1,6.5c-3.6,7.5-4.1,18.1,2.9,31.2c0.9,1.7,1.6,3,2.8,4.5
		l0,0l0,0c15.8,24.3,39.5,22.4,40.6,22.3c0.5,0.2,1.1-0.2,1.4-0.3c0.6-0.3,0.9-0.5,1.1-1c0.8-0.8,15.7-19.1,4.2-45.8l-0.2-0.3
		l-0.2-0.3c-0.7-1.3-1.3-3.2-2-4.5c-2.3-4.4-5.1-8-7.8-10.9l-0.2-0.3c-5.1-5-10.6-7.7-16-8.7c0.7-2.5,0.5-5.9-1.5-9.6
		c-0.4-0.7-0.9-1.7-1.6-2.2c2.8-7.5,11.6-29,31.4-39.6c6.9-3.7,15.4-6,17.7-1.7c10,18.8-10,35.1-10.7,35.9c-1.4,1.2-2.1,2.9-1.5,4.7
		c0.2,0.3,1.1,5-2.4,6.9c-1.9,1-4.9,1.3-8.8,1.7c-2.4,0-4.6,2-4.5,4.5s2.2,4.9,4.6,4.9c5.3,0.2,9.7-0.8,12.8-2.5
		c6-3.2,7.4-9.6,7-14.1c9.3-8.4,21.1-26.3,10.7-45.8C570.6,165.8,563.1,156.9,543.3,167.5z M500.9,204.8c2.3,4.4-3,8.1-5.5,9.4
		s-8.4,4-10.9-0.7c-2.3-4.4,3-8.1,5.5-9.4S498.4,200.1,500.9,204.8z M524.5,238.3l-25.2,13.4c0.6-8,5.9-11.7,9-13.4
		C513,235.8,518.6,235,524.5,238.3z M541.2,268.1L515.1,282c-2-1.5-3.9-3.5-5.8-5.5l30.5-16.3C540.5,262.9,540.8,265.8,541.2,268.1z
		 M503.9,268.7l-0.2-0.3c-1.3-2.3-2-4.5-3.1-6.5l31.4-16.8c1.4,1.8,2.8,3.7,4,6l0.2,0.3L503.9,268.7z M535.9,289.9
		c-2.1-0.2-6.3-0.5-11.3-2.2l15.4-8.2C539,284.4,537.2,287.9,535.9,289.9z M493.5,230.3c-0.9-1.7-2-3.7,6.2-8.1
		c8.2-4.4,9.3-2.4,10.1-0.7c0.9,1.7,2,3.7-6.2,8.1C495.7,234.3,494.6,232.3,493.5,230.3z"/>
</g>
<g>
	<path d="M771.9,236.6c-17.8-10.6-37.6-10.1-49.4-8.3c1.4-0.9,2.7-2.4,3.6-4c2.1-3.6,2.7-7.3,1.6-11l7.4-4c2.4-1.2,3.3-4.2,2.1-6.3
		c-1.1-2.4-3.9-3.2-6-1.8l-8.1,4.5c-1.3-1.2-3-2.7-4.8-3.8s-3.9-1.9-5.6-2.5v-9.7c-0.1-2.7-1.8-4.6-4.4-4.4
		c-2.6,0.2-4.6,2.1-4.5,4.8v8.4c-3.5,1-6.8,3-8.9,6.6c-1,1.6-1.6,3.4-1.8,5.1c-4.3-11-13-29-30.7-39.6c-19.6-11.7-27.6-3.2-30.1,1
		c-11.3,18.9,0,37.6,8.5,46.2c-0.6,4.5,0.5,10.9,6.3,14.4c3.1,1.8,7.3,3,12.7,3.1c2.4,0.1,4.6-2.1,4.8-4.6c0.3-2.5-1.8-4.6-4.2-4.7
		c-3.7,0-6.6-0.8-8.7-2.1c-3.4-2-2.3-6.7-2.1-7c0.7-1.8,0-3.5-1.3-4.8c-0.7-0.9-20.1-17.8-9-36.4c3.1-3.9,11-1,17.7,3
		c19,11.3,27,33.4,29.2,40.9c-0.4,0.7-1.1,1.1-1.7,2.1c-2.1,3.6-2.3,6.6-1.9,9.5c-8.3,0.8-17.6,5.9-25.2,18.6
		c-1,1.6-1.8,2.9-2.4,4.8l0,0l0,0c-12.7,26.1,1.1,45.4,1.8,46.3c0.1,0.5,0.7,0.9,1,1.1c0.6,0.4,0.9,0.5,1.4,0.4
		c1.1,0.2,24.5,3.5,41.4-20l0.2-0.3l0.2-0.3c0.8-1.3,2.1-2.8,2.8-4.1c2.5-4.2,4.3-8.5,5.3-12.3l0.2-0.3c1.7-7,1.1-13-0.8-18.2
		c2.5-0.7,5.3-2.6,7.4-6.2c0.4-0.7,1-1.6,1.1-2.5c7.9-1.5,30.8-5,50.1,6.5c6.7,4,13.1,10,10.6,14.3c-10.9,18.3-35.2,9.5-36.3,9.3
		c-1.7-0.6-3.5-0.3-4.8,1.1c-0.2,0.3-3.8,3.5-7.1,1.5c-1.8-1.1-3.7-3.5-6-6.7c-1.3-2.1-4.1-2.9-6.2-1.5s-3,4.4-1.8,6.5
		c2.6,4.7,5.7,7.8,8.8,9.7c5.8,3.5,12,1.4,15.7-1.2c12,3.6,33.4,4.5,44.8-14.4C787.5,259.2,791.2,248.1,771.9,236.6z M718.2,219.5
		c-2.5,4.2-8.4,1.6-10.9,0.1c-2.4-1.5-7.8-5.1-5-9.6c2.5-4.2,8.4-1.6,10.9-0.1S720.9,214.9,718.2,219.5z M701.6,257l-24.5-14.6
		c7.2-3.7,13.1-1,16.1,0.8C697.9,245.9,701.5,250.3,701.6,257z M684.7,286.7l-25.4-15.2c0.3-2.5,1-5.2,1.8-7.8l29.7,17.7
		C688.7,283.4,686.5,285.1,684.7,286.7z M665,255l0.2-0.3c1.4-2.3,2.8-4.1,4-6l30.6,18.3c-0.9,2.1-1.7,4.3-3.1,6.6l-0.2,0.3L665,255
		z M663.3,293.4c-0.9-1.9-2.8-5.7-3.9-10.8l15,9C669.6,293.2,665.7,293.5,663.3,293.4z M692.5,226.3c1-1.6,2.1-3.6,10.1,1.2
		s6.8,6.7,5.8,8.3s-2.1,3.6-10.1-1.2C690.2,230.2,691.4,228.3,692.5,226.3z"/>
</g>
<g>
	<path d="M876.7,408.7c-7.7-19.2-23.9-30.7-34.4-36.5c1.7,0.1,3.6-0.3,5.3-1c3.9-1.6,6.5-4.2,7.9-7.8l8.3,1.3
		c2.6,0.5,5.2-1.3,5.5-3.7c0.6-2.6-1.2-4.9-3.7-5.1l-9.1-1.3c-0.3-1.8-0.8-3.9-1.6-5.9s-2-3.8-3-5.3l5.9-7.8
		c1.6-2.2,1.4-4.8-0.9-6.2c-2.2-1.4-4.9-1.1-6.5,1.1l-5.1,6.7c-3.4-1.3-7.2-1.7-11.1-0.1c-1.8,0.7-3.4,1.8-4.5,3
		c3.2-11.3,7.2-31-0.5-50.1c-8.5-21.2-20-19.2-24.6-17.4c-20.4,8.2-22.8,29.9-21.2,42c-3.2,3.2-6.2,9-3.7,15.3
		c1.3,3.3,4,6.8,8.2,10.2c1.9,1.6,4.9,1.1,6.7-0.8c1.7-1.8,1.4-4.8-0.5-6.3c-3-2.3-4.7-4.6-5.7-6.9c-1.5-3.6,2.2-6.7,2.6-6.8
		c1.6-1,2.2-2.8,1.8-4.6c0-1.1-5.3-26.3,14.8-34.4c4.8-1.2,9.3,5.9,12.3,13.1c8.3,20.5,1.3,42.9-1.5,50.2c-0.7,0.3-1.5,0.2-2.6,0.7
		c-3.9,1.6-5.8,3.9-7.3,6.4c-7.1-4.4-17.6-6-31.3-0.4c-1.8,0.7-3.2,1.3-4.8,2.3l0,0l0,0c-25.9,13.1-26.5,36.8-26.5,38
		c-0.2,0.5,0,1.1,0.2,1.5c0.3,0.7,0.4,1,0.9,1.2c0.8,0.8,17.3,17.6,45.1,9.1l0.4-0.1l0.4-0.1c1.4-0.6,3.3-0.9,4.7-1.5
		c4.6-1.8,8.5-4.2,11.7-6.6l0.4-0.1c5.5-4.5,8.8-9.7,10.4-14.9c2.4,0.9,5.8,1.1,9.7-0.4c0.7-0.3,1.8-0.7,2.3-1.3
		c7.2,3.6,27.6,14.6,36,35.5c2.9,7.3,4.4,15.9-0.2,17.8c-19.7,8-33.8-13.7-34.5-14.5c-1-1.5-2.6-2.4-4.5-2c-0.4,0.1-5.1,0.5-6.6-3.1
		c-0.8-2-0.8-5.1-0.7-8.9c0.3-2.4-1.5-4.8-4-4.9s-5.1,1.7-5.3,4.1c-0.7,5.3-0.2,9.7,1.1,13c2.5,6.3,8.7,8.4,13.3,8.5
		c7.4,10.1,23.9,23.8,44.4,15.6C875.5,436.1,885.1,429.6,876.7,408.7z M844.2,362.6c-4.6,1.8-7.7-3.8-8.8-6.5
		c-1.1-2.6-3.1-8.7,1.8-10.7c4.6-1.8,7.7,3.8,8.8,6.5S849.2,360.6,844.2,362.6z M808.4,382.5L797.7,356c7.9,1.4,11,7.1,12.4,10.4
		C812.1,371.4,812.3,377,808.4,382.5z M776.9,395.9l-11.1-27.4c1.7-1.8,3.9-3.5,6.1-5.2l12.9,32.1
		C782.2,395.7,779.3,395.7,776.9,395.9z M780.4,358.8l0.4-0.1c2.5-1,4.7-1.5,6.8-2.4l13.3,33.1c-2,1.2-4,2.4-6.4,3.4l-0.4,0.1
		L780.4,358.8z M755.8,388.3c0.4-2.1,1.2-6.2,3.4-11l6.5,16.2C761,392,757.7,389.8,755.8,388.3z M819.7,352.5c1.8-0.7,3.9-1.6,7.3,7
		c3.5,8.6,1.4,9.4-0.4,10.2c-1.8,0.7-3.9,1.6-7.3-7C815.4,354.2,817.6,353.4,819.7,352.5z"/>
</g>
<g>
	<path d="M371.9,283c-8.9,18.7-6.5,38.4-3.6,50c-1.1-1.3-2.6-2.4-4.3-3.3c-3.8-1.8-7.5-2-11.1-0.6l-4.7-7c-1.4-2.3-4.5-2.9-6.4-1.5
		c-2.3,1.3-2.8,4.2-1.2,6.1l5.2,7.6c-1.1,1.4-2.4,3.2-3.3,5.1s-1.5,4-1.9,5.8l-9.7,0.9c-2.7,0.3-4.4,2.2-4,4.8
		c0.5,2.6,2.5,4.4,5.2,4.1l8.4-0.8c1.3,3.4,3.6,6.5,7.4,8.3c1.7,0.8,3.6,1.3,5.3,1.3c-10.5,5.3-27.7,15.7-36.6,34.3
		c-9.8,20.6-0.6,27.8,3.9,29.9c19.9,9.5,37.4-3.5,45.2-12.8c4.5,0.2,10.8-1.5,13.8-7.7c1.5-3.2,2.3-7.6,1.9-12.9
		c-0.1-2.4-2.5-4.4-5.1-4.4c-2.5,0-4.4,2.2-4.3,4.7c0.3,3.7-0.2,6.6-1.3,8.9c-1.7,3.5-6.4,2.9-6.8,2.7c-1.9-0.5-3.5,0.3-4.6,1.7
		c-0.8,0.8-15.8,21.7-35.4,12.4c-4.2-2.8-2-10.8,1.4-17.9c9.5-20,30.7-30,38-32.9c0.7,0.3,1.2,1,2.2,1.5c3.8,1.8,6.8,1.7,9.6,1
		c1.5,8.2,7.5,17,20.9,23.4c1.7,0.8,3.1,1.5,5,2l0,0l0,0c27.1,10.2,45.1-5.4,45.9-6.2c0.5-0.2,0.8-0.8,1-1.1c0.3-0.6,0.5-1,0.3-1.5
		c0.1-1.1,1.2-24.7-23.8-39.4l-0.3-0.2l-0.3-0.2c-1.4-0.7-2.9-1.8-4.3-2.4c-4.5-2.1-8.9-3.4-12.8-4.1l-0.3-0.2
		c-7.1-1-13.1,0.1-18,2.5c-0.9-2.4-3.1-5-6.9-6.8c-0.7-0.3-1.7-0.8-2.6-0.8c-2.2-7.8-7.9-30.2,1.7-50.5c3.4-7.1,8.8-14,13.2-11.9
		c19.2,9.2,12.8,34.1,12.7,35.3c-0.4,1.8,0,3.6,1.6,4.7c0.3,0.2,3.8,3.4,2.2,7c-0.9,1.9-3.2,4-6.1,6.6c-1.9,1.4-2.5,4.3-0.9,6.3
		c1.6,1.9,4.6,2.6,6.6,1.2c4.4-3,7.3-6.4,8.8-9.6c2.9-6.1,0.3-12.1-2.7-15.5c2.5-12.3,1.3-33.7-18.6-43.2
		C392.9,265.3,381.6,262.7,371.9,283z M360,338.1c4.5,2.1,2.4,8.2,1.2,10.8c-1.2,2.6-4.3,8.2-9.1,5.9c-4.5-2.1-2.4-8.2-1.2-10.8
		C352.1,341.4,355.2,335.8,360,338.1z M398.8,351.1l-12.3,25.7c-4.3-6.8-2.3-12.9-0.7-16.1C388.1,355.8,392.1,351.8,398.8,351.1z
		 M430,365.1l-12.7,26.7c-2.5,0-5.2-0.5-7.9-1l14.9-31.2C426.3,361.4,428.2,363.5,430,365.1z M400.3,387.7l-0.3-0.2
		c-2.4-1.1-4.3-2.4-6.4-3.4l15.3-32.2c2.2,0.7,4.4,1.3,6.8,2.5l0.3,0.2L400.3,387.7z M438.7,385.8c-1.8,1.1-5.4,3.4-10.4,4.9
		l7.5-15.8C437.9,379.5,438.5,383.4,438.7,385.8z M369.1,363c-1.7-0.8-3.8-1.8,0.2-10.2c4-8.4,6-7.4,7.8-6.6
		c1.7,0.8,3.8,1.8-0.2,10.2C373.3,364.9,371.2,364,369.1,363z"/>
</g>
<g>
	<path d="M315.8,510.2c10.3,17.9,27.9,27.1,39.1,31.4c-1.7,0.1-3.5,0.8-5.1,1.7c-3.6,2.1-5.9,5-6.8,8.8l-8.4-0.1
		c-2.7-0.1-5,2-4.9,4.5c-0.3,2.6,1.8,4.7,4.3,4.5h9.2c0.6,1.7,1.3,3.8,2.4,5.6c1.1,1.9,2.5,3.5,3.7,4.9l-4.8,8.5
		c-1.3,2.4-0.7,4.9,1.7,6c2.4,1.1,5,0.4,6.3-2l4.1-7.3c3.6,0.8,7.4,0.7,11-1.4c1.6-0.9,3.1-2.2,4.1-3.6c-1.6,11.6-2.8,31.7,7.5,49.6
		c11.4,19.8,22.5,16.3,26.8,13.8c19.1-11,18.4-32.8,15.2-44.5c2.7-3.6,4.9-9.8,1.5-15.7c-1.8-3.1-4.9-6.2-9.5-8.9
		c-2.1-1.3-5-0.4-6.5,1.7c-1.4,2.1-0.7,4.9,1.4,6.2c3.2,1.8,5.3,3.9,6.6,6.1c2,3.4-1.3,6.9-1.6,7.1c-1.5,1.3-1.7,3.1-1.2,4.8
		c0.2,1.1,8.9,25.3-9.9,36.1c-4.6,1.8-10-4.5-14-11.3c-11-19.2-7.2-42.3-5.5-49.9c0.7-0.4,1.5-0.4,2.5-1c3.6-2.1,5.2-4.6,6.3-7.3
		c7.7,3.4,18.2,3.5,31.1-3.9c1.6-0.9,3-1.7,4.4-3l0,0l0,0c23.8-16.6,21.2-40.1,21-41.3c0.2-0.5-0.2-1.1-0.4-1.4
		c-0.4-0.6-0.5-0.9-1-1c-0.9-0.7-19.6-15-45.9-2.8l-0.3,0.2l-0.3,0.2c-1.3,0.8-3.1,1.4-4.5,2.2c-4.3,2.5-7.9,5.4-10.6,8.2l-0.3,0.2
		c-4.9,5.3-7.4,10.8-8.2,16.2c-2.5-0.6-5.9-0.3-9.5,1.8c-0.7,0.4-1.6,0.9-2.1,1.6c-7.6-2.6-29.4-10.7-40.6-30.1
		c-3.9-6.8-6.5-15.2-2.2-17.6c18.4-10.6,35.3,8.9,36.2,9.6c1.2,1.4,2.9,2,4.7,1.4c0.3-0.2,5-1.2,6.9,2.2c1.1,1.9,1.5,4.9,2,8.7
		c0.1,2.4,2.2,4.5,4.7,4.3s4.8-2.3,4.7-4.8c0-5.3-1.1-9.6-2.9-12.7c-3.4-5.9-9.8-7.1-14.3-6.6c-8.7-9-27-20.3-46.1-9.3
		C313.2,482.9,304.6,490.7,315.8,510.2z M354.3,551.3c4.3-2.5,8.1,2.7,9.6,5.2c1.4,2.5,4.3,8.2-0.3,10.9c-4.3,2.5-8.1-2.7-9.6-5.2
		C352.6,559.7,349.7,554,354.3,551.3z M387.1,526.7l14.2,24.7c-8.1-0.3-11.9-5.5-13.7-8.6C385,538.3,383.9,532.7,387.1,526.7z
		 M416.4,509.1l14.7,25.7c-1.4,2.1-3.4,4-5.3,6l-17.2-30C411.2,510,414.1,509.6,416.4,509.1z M418.1,546.3l-0.3,0.2
		c-2.3,1.3-4.5,2.2-6.4,3.3l-17.8-30.9c1.8-1.4,3.6-2.9,5.9-4.2l0.3-0.2L418.1,546.3z M438.4,513.7c-0.1,2.1-0.3,6.3-1.8,11.3
		l-8.7-15.1C432.7,510.8,436.3,512.4,438.4,513.7z M380.1,557.9c-1.6,0.9-3.6,2.1-8.2-6c-4.6-8-2.6-9.2-1-10.1
		c1.6-0.9,3.6-2.1,8.2,6C384,555.7,382,556.8,380.1,557.9z"/>
</g>
<g>
	<path d="M817.6,620.5c8.9-18.7,6.5-38.4,3.7-50c1.1,1.3,2.6,2.4,4.3,3.3c3.8,1.8,7.5,2,11.1,0.6l4.7,7c1.4,2.3,4.5,2.9,6.4,1.5
		c2.3-1.3,2.8-4.2,1.2-6.1l-5.2-7.6c1.1-1.4,2.4-3.2,3.3-5.1c0.9-1.9,1.5-4,1.9-5.8l9.7-0.9c2.7-0.3,4.4-2.2,4-4.8s-2.5-4.4-5.2-4.1
		l-8.4,0.7c-1.3-3.4-3.6-6.5-7.4-8.3c-1.7-0.8-3.6-1.3-5.3-1.3c10.5-5.2,27.7-15.6,36.6-34.3c9.8-20.6,0.6-27.8-3.8-29.9
		c-19.9-9.5-37.4,3.4-45.3,12.7c-4.5-0.2-10.8,1.5-13.8,7.6c-1.5,3.2-2.4,7.6-2,12.9c0.1,2.4,2.5,4.4,5.1,4.4c2.5,0,4.4-2.2,4.3-4.6
		c-0.3-3.7,0.2-6.6,1.3-8.9c1.7-3.5,6.4-2.9,6.8-2.7c1.9,0.5,3.5-0.3,4.6-1.7c0.8-0.8,15.8-21.7,35.4-12.3c4.1,2.8,2,10.8-1.4,17.9
		c-9.5,19.9-30.7,30-38,32.8c-0.7-0.3-1.2-1-2.2-1.5c-3.8-1.8-6.8-1.7-9.6-1c-1.5-8.2-7.5-17-20.8-23.4c-1.7-0.8-3.1-1.5-5-2l0,0
		l0,0c-27.1-10.2-45.1,5.3-45.9,6.1c-0.5,0.2-0.8,0.8-1,1.1c-0.3,0.6-0.5,1-0.3,1.5c-0.1,1.1-1.3,24.7,23.7,39.4l0.3,0.2l0.3,0.2
		c1.4,0.7,2.9,1.8,4.3,2.5c4.5,2.1,8.9,3.5,12.8,4.1l0.3,0.2c7.1,1,13.1-0.1,18-2.5c0.9,2.4,3.1,5,6.8,6.8c0.7,0.3,1.7,0.8,2.6,0.8
		c2.2,7.8,7.9,30.2-1.8,50.5c-3.4,7.1-8.8,14-13.2,11.8c-19.2-9.2-12.7-34.1-12.6-35.3c0.4-1.8,0-3.6-1.5-4.7
		c-0.3-0.2-3.8-3.4-2.2-7c0.9-1.9,3.2-4,6.1-6.6c2-1.4,2.5-4.3,0.9-6.3s-4.6-2.6-6.6-1.2c-4.4,3-7.3,6.4-8.8,9.6
		c-2.9,6.1-0.3,12.1,2.7,15.5c-2.5,12.2-1.4,33.7,18.5,43.2C796.6,638.1,808,640.8,817.6,620.5z M829.7,565.4
		c-4.5-2.1-2.4-8.2-1.1-10.8c1.2-2.6,4.3-8.2,9.1-5.9c4.5,2.1,2.4,8.2,1.1,10.8C837.6,562.1,834.5,567.7,829.7,565.4z M790.8,552.4
		l12.3-25.7c4.3,6.8,2.2,12.9,0.7,16.1C801.5,547.6,797.5,551.6,790.8,552.4z M759.7,538.2l12.8-26.7c2.5,0,5.2,0.5,7.9,1
		l-14.9,31.2C763.3,542,761.4,539.9,759.7,538.2z M789.4,515.7l0.3,0.2c2.4,1.1,4.3,2.5,6.4,3.4l-15.4,32.2
		c-2.2-0.7-4.4-1.3-6.8-2.5l-0.3-0.2L789.4,515.7z M751,517.5c1.8-1.1,5.4-3.4,10.4-4.9l-7.5,15.8
		C751.8,523.8,751.1,519.9,751,517.5z M820.5,540.5c1.7,0.8,3.8,1.8-0.2,10.2s-6.1,7.4-7.8,6.6c-1.7-0.8-3.8-1.8,0.2-10.2
		C816.4,538.5,818.5,539.5,820.5,540.5z"/>
</g>
<g>
	<path d="M929.5,471.3c-1.6-1.3-2.4-3.2-2.4-5.2l0.8-24.1c0.2-3.5,3.2-6.4,6.5-6.3l1.8,0.1c3.3,0,6.3,3.1,6.3,6.5l-0.8,24.1
		c-0.2,3.5-3.2,6.4-6.5,6.3l-1.8-0.1C931.9,472.4,930.6,472.2,929.5,471.3z M937.3,440.2c-0.3-0.3-0.9-0.5-1.4-0.6l-1.6,0.1
		c-1.3,0-2.4,1-2.3,2.3l-0.8,24.1c0,1.3,1,2.4,2.3,2.3l1.6-0.1c1.3,0,2.4-1,2.3-2.3l0.8-24.1C938.2,441.4,937.9,440.7,937.3,440.2z"
		/>
	<path d="M919.4,475.6L919.4,475.6c-1.6-1.3-2.4-3.2-2.3-5l1-33.6c0.2-3.5,3.1-6.2,6.4-6.2l1.6-0.1c3.3,0,6.2,3,6.1,6.4l-1,33.3
		c-0.2,3.5-3.1,6.2-6.4,6.2l-1.6,0.1C921.5,476.8,920.3,476.3,919.4,475.6z M927.1,435.6c-0.3-0.3-0.8-0.3-1.2-0.4l-1.6,0.1
		c-1.2-0.1-2.2,0.9-2.2,2.2l-1,33.3c-0.2,1.2,0.8,2.2,2.2,2.2l1.6-0.1c1.2,0.1,2.2-0.9,2.2-2.2l0.8-33.4
		C928,436.5,927.6,436,927.1,435.6z"/>
	<path d="M909.1,480c-1.6-1.3-2.4-3.2-2.3-5l1.3-43.3c0.2-3.5,3.1-6.2,6.4-6.2l1.6-0.1c3.3,0,6.2,3,6.1,6.4l-1.3,43.3
		c-0.2,3.5-3.1,6.2-6.4,6.2l-1.6,0.1C911.5,481.4,910.2,480.9,909.1,480z M917.2,430.4c-0.3-0.3-0.8-0.3-1.2-0.4l-1.6,0.1
		c-1.2-0.1-2.2,0.9-2.2,2.2l-1.3,43.3c-0.2,1.2,0.8,2.2,2.2,2.2l1.6-0.1c1.2,0.1,2.2-0.9,2.2-2.2l1.3-43.3
		C918.2,431.5,917.7,430.8,917.2,430.4z"/>
	<path d="M899.2,478.2c-1.6-1.3-2.4-3.2-2.3-5l1.3-39.9c0.2-3.5,3.1-6.2,6.4-6.2l1.5,0.1c3.3,0,6.2,3,6.1,6.4l-1.3,39.9
		c-0.2,3.5-3.1,6.2-6.4,6.2l-1.5-0.1C901.5,479.5,900.3,479.1,899.2,478.2z M907.2,431.9c-0.3-0.3-0.8-0.3-1.2-0.4l-1.6,0.1
		c-1.2-0.1-2.2,0.9-2.2,2.2l-1.3,39.9c-0.2,1.2,0.8,2.2,2.2,2.2l1.6-0.1c1.2,0.1,2.2-0.9,2.2-2.2l1.1-40
		C908.1,432.9,907.7,432.3,907.2,431.9z"/>
	<path d="M889.3,474.9c-1.6-1.3-2.4-3.2-2.3-5l1-33.3c0.2-3.5,3.1-6.2,6.4-6.2l1.6-0.1c3.3,0,6.2,3,6.1,6.4l-1,33.3
		c-0.2,3.5-3.1,6.2-6.4,6.2l-1.6,0.1C891.6,476.2,890.3,475.7,889.3,474.9z M897.1,434.9c-0.3-0.3-0.8-0.3-1.2-0.4l-1.6,0.1
		c-1.2-0.1-2.2,0.9-2.2,2.2l-1,33.3c-0.2,1.2,0.8,2.2,2.2,2.2l1.6-0.1c1.2,0.1,2.2-0.9,2.2-2.2l0.8-33.4
		C897.9,435.9,897.6,435.3,897.1,434.9z"/>
	<path d="M837.1,457.6c-1.8-1.4-2.7-3.4-2.6-5.7v-0.3c0.1-3.8,3.4-6.7,7.2-6.6l49.9,1.1l-0.4,14l-49.9-1.1
		C839.9,459,838.4,458.6,837.1,457.6z M838.6,452.1c0,1.6,1.4,2.9,2.8,3l45.8,1l0.2-5.8l-45.8-1
		C839.8,449.1,838.5,450.5,838.6,452.1L838.6,452.1z"/>
</g>
<g>
	<path d="M268.6,435.9c1.6,1.2,2.5,3.1,2.5,5.2l-0.1,24.1c-0.1,3.5-3,6.4-6.4,6.5h-1.8c-3.3,0.1-6.4-3-6.5-6.3l0.1-24.1
		c0.1-3.5,3-6.4,6.4-6.5h1.8C266.1,434.9,267.5,435.1,268.6,435.9z M261.7,467.2c0.3,0.2,0.9,0.4,1.4,0.5l1.6-0.1
		c1.3-0.1,2.3-1.1,2.3-2.4l0.1-24.1c0-1.3-1.1-2.3-2.4-2.3l-1.6,0.1c-1.3,0.1-2.3,1.1-2.3,2.4l-0.1,24.1
		C260.8,466.1,261,466.8,261.7,467.2z"/>
	<path d="M278.6,431.4L278.6,431.4c1.6,1.2,2.5,3.1,2.5,4.9l-0.1,33.6c-0.1,3.5-2.9,6.3-6.2,6.3l-1.6,0.1c-3.3,0.1-6.3-2.9-6.3-6.2
		l0.1-33.3c0.1-3.5,2.9-6.3,6.2-6.3l1.6-0.1C276.4,430.2,277.7,430.6,278.6,431.4z M271.9,471.5c0.3,0.2,0.8,0.3,1.2,0.4l1.6-0.1
		c1.2,0.1,2.2-0.9,2.2-2.2l0.1-33.3c0.1-1.2-0.9-2.2-2.2-2.2l-1.6,0.1c-1.2-0.1-2.2,0.9-2.2,2.2v33.5
		C271.1,470.7,271.4,471.2,271.9,471.5z"/>
	<path d="M288.7,426.6c1.6,1.2,2.5,3.1,2.5,4.9l-0.1,43.3c-0.1,3.5-2.9,6.3-6.2,6.3l-1.6,0.1c-3.3,0.1-6.3-2.9-6.3-6.2l0.1-43.3
		c0.1-3.5,2.9-6.3,6.2-6.3l1.6-0.1C286.4,425.4,287.6,425.8,288.7,426.6z M282,476.5c0.3,0.2,0.8,0.3,1.2,0.4l1.6-0.1
		c1.2,0.1,2.2-0.9,2.2-2.2l0.1-43.3c0.1-1.2-0.9-2.2-2.2-2.2l-1.6,0.1c-1.2-0.1-2.2,0.9-2.2,2.2l-0.1,43.3
		C281,475.4,281.5,476.1,282,476.5z"/>
	<path d="M298.8,428.2c1.6,1.2,2.5,3.1,2.5,4.9L301,473c-0.1,3.5-2.9,6.3-6.2,6.3l-1.5-0.1c-3.3,0.1-6.3-2.9-6.3-6.2l0.2-39.9
		c0.1-3.5,2.9-6.3,6.2-6.3l1.5,0.1C296.4,426.9,297.6,427.3,298.8,428.2z M291.9,474.7c0.3,0.2,0.8,0.3,1.2,0.4l1.6-0.1
		c1.2,0.1,2.2-0.9,2.2-2.2l0.2-39.9c0.1-1.2-0.9-2.2-2.2-2.2l-1.6,0.1c-1.2-0.1-2.2,0.9-2.2,2.2v40
		C291.1,473.8,291.4,474.3,291.9,474.7z"/>
	<path d="M308.7,431.2c1.6,1.2,2.5,3.1,2.5,4.9l-0.1,33.3c-0.1,3.5-2.9,6.3-6.2,6.3l-1.6,0.1c-3.3,0.1-6.3-2.9-6.3-6.2l0.1-33.3
		c0.1-3.5,2.9-6.3,6.2-6.3l1.6-0.1C306.3,430,307.7,430.5,308.7,431.2z M302,471.4c0.3,0.2,0.8,0.3,1.2,0.4l1.6-0.1
		c1.2,0.1,2.2-0.9,2.2-2.2l0.1-33.3c0.1-1.2-0.9-2.2-2.2-2.2l-1.6,0.1c-1.2-0.1-2.2,0.9-2.2,2.2v33.5
		C301.1,470.5,301.5,471,302,471.4z"/>
	<path d="M361.4,447.1c1.8,1.3,2.8,3.4,2.7,5.6v0.3c0,3.8-3.2,6.8-7,6.8l-49.9,0.2v-14l49.9-0.2
		C358.6,445.8,360.1,446.1,361.4,447.1z M360,452.7c-0.1-1.6-1.4-2.9-2.9-2.9l-45.8,0.2v5.8l45.8-0.2
		C358.8,455.7,360.1,454.3,360,452.7L360,452.7z"/>
</g>
<g id="Calque_3">
</g>
<g>
	<path d="M658.9,475.9c-1,0.4-8.6,3-58,3c-54.8,0-62.9-2.6-63.9-3.1c-0.1-0.1-0.2-0.1-0.2-0.2c-0.3-0.2-8.5-4.6-8.5-15.1
		c0-10.7,6.9-12.8,8.8-13.2c0.7,0.2,1.4,0.3,1.9,0.3c1.4,0.2,14.4,1.5,58.9,1.5s57.7-1.3,59.1-1.5c0.5,0,1.1-0.1,1.8-0.3
		c2.1,0.5,8.6,2.8,8.6,13.1c0,9.7-6.7,14.2-8.1,15C659.2,475.8,659,475.9,658.9,475.9z M534.1,430.8c-2.6,9,1.1,12,3.6,12.9
		c0.1,0,0.1,0.1,0.1,0.1c0.7,0.2,1.2,0.3,1.3,0.3s0.2,0,0.3,0s12.6,1.5,58.5,1.5c46,0,58.6-1.4,58.7-1.5c0.1,0,0.2,0,0.2,0
		c0.1,0,0.3,0,0.7-0.1c0.3-0.1,0.5-0.2,0.8-0.3c2.5-0.9,6.1-4.4,3.5-13.3c-3.1-10.6-10.2-12.6-11.1-12.6h-105
		C545.6,417.8,537.3,419.8,534.1,430.8z M536.1,479.4c-1.3,1.1-4.1,4.7-1,14.1c3,9.3,8,11,8.1,11s0.3,0.1,0.4,0.2
		c0.1,0,10,4.7,54.5,4.7s54.8-4.7,54.9-4.8c0.1-0.1,0.2-0.1,0.4-0.1c0,0,5-1.7,8.1-11c3.1-9.7,0.1-13.2-1.1-14.2
		c-7.4,2.7-35.6,3.3-59.3,3.3C575,482.7,544.2,482.1,536.1,479.4z M544.3,411.2c-0.5,1.4-0.1,2.4,0.2,3c0.4,0.6,0.8,1,1.1,1h105.6
		c0.1,0,0.5-0.2,0.9-0.7c0.3-0.3,1.1-1.6,0.4-3.3c-4.4-12.8-14.5-16.4-16.5-17c-0.1,0-2.1,0-2.2,0h-71c-0.1,0-2.2,0-2.3,0
		C558.7,394.8,548.7,398.5,544.3,411.2z M546.7,521.8c8,7.9,15.9,13.1,51.5,13.1s43.5-5.2,51.5-13.1c5.8-5.8,4.4-10.9,3.3-13.1
		c-4.5,1.4-18.5,4.5-55,4.5c-36.2,0-50.1-3.1-54.6-4.5C542.3,511,540.9,516.1,546.7,521.8z M633.8,384.8c-3.9-3.3-15.7-6.2-20.9-6.6
		c-4.7-0.4-23.3-0.3-29,0c-5.5,0.3-17,3.4-20.8,6.6c-3,2.5-2.5,3.9-2,5.7h74.6C636.3,388.7,636.7,387.3,633.8,384.8z M658.1,443.8
		c0.1,0,0.2-0.1,0.3-0.1c-0.3,0-0.6,0.1-0.8,0.3C657.7,443.9,657.9,443.9,658.1,443.8z"/>
	<path class="st2" d="M598.2,536.8h23.6c0-17.3-10.7-31.6-23.6-31.6c-12.9,0-23.6,14.2-23.6,31.4L598.2,536.8z"/>
	<g>
		<g>
			<path class="st3" d="M673.1,404.5c0,0,0.4,3.1,5.5,4.5s-2.1-7.3-2.1-7.3L673.1,404.5z"/>
			<path class="st3" d="M673.5,402.6l2.6,9.5c0,0-0.2,3.7-3.3,0.8C669.8,410,673.5,402.6,673.5,402.6z"/>
			<path class="st3" d="M674.6,401.8l8.8,5.2c0,0,3.8,1,1.8-2.7C683.2,400.8,674.6,401.8,674.6,401.8z"/>
			<ellipse class="st3" cx="673.9" cy="402.2" rx="2.5" ry="2.4"/>
			<ellipse class="st3" cx="671.1" cy="399.9" rx="2.1" ry="2"/>
			<polyline class="st3" points="671.1,398.2 670.6,396.1 669.3,395.4 			"/>
			<polyline class="st3" points="669.6,398.8 668.8,396.5 667.4,396.1 			"/>
		</g>
		<line class="st4" x1="680" y1="406.7" x2="677.9" y2="408.5"/>
		<line class="st4" x1="678.9" y1="404.9" x2="675.9" y2="407.9"/>
		<line class="st4" x1="677.8" y1="403.9" x2="674.7" y2="407"/>
	</g>
	<g>
		<g>
			<path class="st3" d="M611.1,538.2c0,0,0.4,3.1,5.5,4.5s-2.1-7.3-2.1-7.3L611.1,538.2z"/>
			<path class="st3" d="M611.4,536.2l2.6,9.5c0,0-0.2,3.7-3.3,0.8C607.7,543.6,611.4,536.2,611.4,536.2z"/>
			<path class="st3" d="M612.5,535.5l8.8,5.2c0,0,3.8,1,1.8-2.7C621.1,534.4,612.5,535.5,612.5,535.5z"/>
			<ellipse class="st3" cx="611.8" cy="535.9" rx="2.5" ry="2.4"/>
			<ellipse class="st3" cx="609" cy="533.5" rx="2.1" ry="2"/>
			<polyline class="st3" points="609,531.9 608.5,529.7 607.3,529 			"/>
			<polyline class="st3" points="607.6,532.4 606.7,530.2 605.4,529.7 			"/>
		</g>
		<line class="st4" x1="617.9" y1="540.4" x2="615.8" y2="542.2"/>
		<line class="st4" x1="616.9" y1="538.6" x2="613.9" y2="541.5"/>
		<line class="st4" x1="615.7" y1="537.6" x2="612.7" y2="540.7"/>
	</g>
	<g>
		<g>
			<path class="st3" d="M525.4,488.5c0,0-0.4,3.1-5.5,4.5s2.1-7.3,2.1-7.3L525.4,488.5z"/>
			<path class="st3" d="M525,486.6l-2.6,9.5c0,0,0.2,3.7,3.3,0.8C528.7,494,525,486.6,525,486.6z"/>
			<path class="st3" d="M523.9,485.8l-8.8,5.2c0,0-3.8,1-1.8-2.7C515.3,484.7,523.9,485.8,523.9,485.8z"/>
			<ellipse class="st3" cx="524.6" cy="486.2" rx="2.5" ry="2.4"/>
			<ellipse class="st3" cx="527.4" cy="483.9" rx="2.1" ry="2"/>
			<polyline class="st3" points="527.4,482.2 527.9,480.1 529.2,479.4 			"/>
			<polyline class="st3" points="528.9,482.7 529.7,480.5 531.1,480.1 			"/>
		</g>
		<line class="st4" x1="518.5" y1="490.7" x2="520.6" y2="492.5"/>
		<line class="st4" x1="519.6" y1="488.9" x2="522.6" y2="491.9"/>
		<line class="st4" x1="520.7" y1="487.9" x2="523.8" y2="491"/>
	</g>
	<line class="st5" x1="550.7" y1="404.4" x2="550.7" y2="359.5"/>
	<line class="st5" x1="558.1" y1="397.9" x2="558.1" y2="371.1"/>
	<ellipse cx="550.7" cy="359.5" rx="2.3" ry="2.1"/>
	<ellipse cx="558.1" cy="371.1" rx="2.3" ry="2.1"/>
	<path class="st6" d="M550.7,359.5"/>
	<path class="st6" d="M550.7,359.5"/>
	<path class="st6" d="M550.7,359.5"/>
	<path class="st6" d="M550.7,359.5"/>
	<g>
		<path class="st6" d="M547.1,362.8c-0.9-0.9-1.5-2.1-1.5-3.3c0-2.6,2.3-4.8,5.1-4.8s5.1,2.2,5.1,4.8c0,1.2-0.5,2.4-1.3,3.2"/>
		<path class="st6" d="M545.4,364.8c-1.4-1.3-2.2-3.1-2.2-5c0-3.9,3.4-7.1,7.5-7.1s7.5,3.2,7.5,7.1c0,1.8-0.7,3.5-2,4.8"/>
		<path class="st6" d="M543.6,366.8c-1.9-1.8-2.9-4.1-2.9-6.6c0-5.2,4.5-9.4,10-9.4s10,4.3,10,9.4c0,2.4-0.9,4.7-2.7,6.4"/>
	</g>
</g>
<line class="st7" x1="597.9" y1="117.7" x2="597.9" y2="219.7"/>
<circle class="st8" cx="597.9" cy="119.1" r="5.5"/>
<path class="st9" d="M597.9,119.1"/>
<g>
	<path class="st10" d="M588.6,130.3c-3.3-2.8-5.3-6.9-5.3-11.2c0-8,6.6-14.6,14.6-14.6s14.6,6.6,14.6,14.6c0,4.2-1.8,8.2-5,11"/>
	<path class="st10" d="M583.6,137.2c-5.1-4.3-8.1-10.6-8.1-17.3c0-12.3,10.1-22.4,22.4-22.4c12.3,0,22.4,10.1,22.4,22.4
		c0,6.5-2.8,12.6-7.7,16.9"/>
	<path class="st10" d="M578.6,144.2c-6.9-5.7-11-14.3-11-23.3c0-16.6,13.6-30.2,30.2-30.2c16.6,0,30.2,13.6,30.2,30.2
		c0,8.7-3.8,17-10.4,22.8"/>
</g>
</svg>
